<svg id="visual" viewBox="0 0 900 600" width="900" height="600" xmlns="http://www.w3.org/2000/svg" xmlns:xlink="http://www.w3.org/1999/xlink" version="1.1"><rect x="0" y="0" width="900" height="600" fill="#2E112D"></rect><path d="M0 96L21.5 112.2C43 128.3 86 160.7 128.8 160.3C171.7 160 214.3 127 257.2 126.3C300 125.7 343 157.3 385.8 166.7C428.7 176 471.3 163 514.2 149C557 135 600 120 642.8 113.7C685.7 107.3 728.3 109.7 771.2 117.7C814 125.7 857 139.3 878.5 146.2L900 153L900 0L878.5 0C857 0 814 0 771.2 0C728.3 0 685.7 0 642.8 0C600 0 557 0 514.2 0C471.3 0 428.7 0 385.8 0C343 0 300 0 257.2 0C214.3 0 171.7 0 128.8 0C86 0 43 0 21.5 0L0 0Z" fill="#820333" stroke-linecap="round" stroke-linejoin="miter"></path></svg>