<svg id="visual" viewBox="0 0 900 600" width="900" height="600" xmlns="http://www.w3.org/2000/svg" xmlns:xlink="http://www.w3.org/1999/xlink" version="1.1"><rect x="0" y="0" width="900" height="600" fill="#2E112D"></rect><path d="M0 434L21.5 430.3C43 426.7 86 419.3 128.8 434.2C171.7 449 214.3 486 257.2 485.7C300 485.3 343 447.7 385.8 443.5C428.7 439.3 471.3 468.7 514.2 465.2C557 461.7 600 425.3 642.8 428.5C685.7 431.7 728.3 474.3 771.2 477.8C814 481.3 857 445.7 878.5 427.8L900 410L900 601L878.5 601C857 601 814 601 771.2 601C728.3 601 685.7 601 642.8 601C600 601 557 601 514.2 601C471.3 601 428.7 601 385.8 601C343 601 300 601 257.2 601C214.3 601 171.7 601 128.8 601C86 601 43 601 21.5 601L0 601Z" fill="#820333" stroke-linecap="round" stroke-linejoin="miter"></path></svg>